<?xml version="1.0" encoding="UTF-8" standalone="no"?>
<!-- Created with Inkscape (http://www.inkscape.org/) -->

<svg
   width="100mm"
   height="100mm"
   viewBox="0 0 100 100"
   version="1.1"
   id="svg1"
   xmlns="http://www.w3.org/2000/svg"
   xmlns:svg="http://www.w3.org/2000/svg">
  <defs
     id="defs1">
    <linearGradient
       id="swatch7">
      <stop
         style="stop-color:#000000;stop-opacity:1;"
         offset="0"
         id="stop7" />
    </linearGradient>
  </defs>
  <g
     id="layer1">
    <ellipse
       style="fill:none;fill-opacity:1;stroke:#000000;stroke-width:5.22595;stroke-dasharray:none;stroke-dashoffset:0;stroke-opacity:1"
       id="path46"
       cx="49.999996"
       cy="50"
       ry="47.387001"
       rx="47.387028" />
    <path
       style="color:#000000;fill:#000000;stroke:#000000;stroke-width:6.66666;stroke-dasharray:none;stroke-opacity:1"
       d="m 126.14312,17.475443 -3.5357,6.977682 c 27.68979,14.027993 43.34459,33.045757 46.28711,52.300781 2.94252,19.255025 -6.23482,39.954294 -31.97461,58.880864 -27.86024,20.48575 -39.866677,46.10936 -36.31054,70.22265 3.45631,23.43647 21.22141,44.45141 49.73345,57.9868 1.37238,0.6515 3.02669,0.042 3.68009,-1.32952 l 3.3776,-7.08977 c -27.64185,-12.43004 -43.40383,-31.41505 -46.30872,-51.11243 -2.90489,-19.69738 6.41768,-41.25228 32.10547,-60.14063 27.80825,-20.44752 39.79686,-45.298566 36.17187,-69.019526 -3.52376,-23.058569 -21.24166,-43.90732 -49.51044,-58.87512 -1.35341,-0.716606 -3.02337,-0.167852 -3.71558,1.198219 z"
       id="path48"
       transform="matrix(0.39194575,0,0,0.3919455,-4.872401,-4.8723581)" />
    <path
       style="color:#000000;fill:#000000;stroke:#000000;stroke-width:6.66666;stroke-dasharray:none;stroke-opacity:1"
       d="M 78.031512,65.198736 C 68.925773,77.509119 64.327404,91.313965 65.164062,105.375 c 0.935591,15.72371 8.619182,31.44923 22.966797,45.65039 l 7.453125,-7.5293 C 82.653907,130.698 76.497802,117.47792 75.740234,104.74609 75.070563,93.491471 78.580843,82.369618 86.274071,71.86635 c 1.707178,-2.330744 1.461363,-5.620802 -0.739433,-7.493502 -2.256351,-1.919974 -5.698547,-1.61379 -7.503126,0.825888 z"
       id="path195"
       transform="matrix(0.39194575,0,0,0.3919455,8.6200559,-12.058554)" />
    <path
       style="color:#000000;fill:#000000;stroke:#000000;stroke-width:6.66666;stroke-dasharray:none;stroke-opacity:1"
       d="M 78.031512,65.198736 C 68.925773,77.509119 64.327404,91.313965 65.164062,105.375 c 0.935591,15.72371 8.619182,31.44923 22.966797,45.65039 l 7.453125,-7.5293 C 82.653907,130.698 76.497802,117.47792 75.740234,104.74609 75.070563,93.491471 78.580843,82.369618 86.274071,71.86635 c 1.707178,-2.330744 1.461363,-5.620802 -0.739433,-7.493502 -2.256351,-1.919974 -5.698547,-1.61379 -7.503126,0.825888 z"
       id="path195-7"
       transform="matrix(-0.39194575,0,0,-0.3919455,91.310041,112.0834)" />
    <path
       style="fill:none;fill-opacity:1;stroke:#000000;stroke-width:1.44431;stroke-dasharray:none;stroke-dashoffset:0;stroke-opacity:1"
       d="M 71.556031,87.111414 C 107.22964,59.941506 92.717054,29.123101 72.391405,13.982573"
       id="path253-2-2" />
    <path
       style="fill:none;fill-opacity:1;stroke:#000000;stroke-width:1.44431;stroke-dasharray:none;stroke-dashoffset:0;stroke-opacity:1"
       d="M 71.368347,86.75547 C 75.72673,75.798171 80.726822,68.39946 63.304772,49.73334"
       id="path254-63-3" />
    <path
       style="fill:none;fill-opacity:1;stroke:#000000;stroke-width:1.44431;stroke-dasharray:none;stroke-dashoffset:0;stroke-opacity:1"
       d="M 83.911961,75.247824 C 84.326773,52.848242 74.539862,42.490978 70.184361,42.076172"
       id="path254-6-3-4" />
    <path
       style="fill:none;fill-opacity:1;stroke:#000000;stroke-width:1.44431;stroke-dasharray:none;stroke-dashoffset:0;stroke-opacity:1"
       d="M 89.991503,65.409118 C 90.613714,53.587127 85.178778,32.846676 75.01596,33.054082"
       id="path254-6-9-6-9" />
    <path
       style="fill:none;fill-opacity:1;stroke:#000000;stroke-width:1.44431;stroke-dasharray:none;stroke-dashoffset:0;stroke-opacity:1"
       d="m 72.32151,13.86647 c 4.358376,10.957294 8.50368,17.629581 -8.918365,36.295782"
       id="path254-9-8-9" />
    <path
       style="fill:none;fill-opacity:1;stroke:#000000;stroke-width:1.44431;stroke-dasharray:none;stroke-dashoffset:0;stroke-opacity:1"
       d="M 84.029301,25.354148 C 84.444098,47.753832 75.117343,58.395334 70.761848,58.810134"
       id="path254-6-7-7-2" />
    <path
       style="fill:none;fill-opacity:1;stroke:#000000;stroke-width:1.44431;stroke-dasharray:none;stroke-dashoffset:0;stroke-opacity:1"
       d="M 90.069957,35.63363 C 90.69217,47.455682 85.364456,67.716442 75.201632,67.509036"
       id="path254-6-9-7-4-3" />
    <ellipse
       style="fill:#000000;fill-opacity:1;stroke:#000000;stroke-width:0.195973;stroke-dasharray:none;stroke-dashoffset:0;stroke-opacity:1"
       id="path230-5-01-5-7"
       cx="78.925896"
       cy="50.20005"
       rx="2.8044915"
       ry="2.9752567" />
    <ellipse
       style="fill:#000000;fill-opacity:1;stroke:#000000;stroke-width:0.195973;stroke-dasharray:none;stroke-dashoffset:0;stroke-opacity:1"
       id="path230-5-01-5-7-4"
       cx="63.928913"
       cy="49.9478"
       rx="2.8044915"
       ry="2.9752567" />
    <ellipse
       style="fill:#000000;fill-opacity:1;stroke:#000000;stroke-width:0.195973;stroke-dasharray:none;stroke-dashoffset:0;stroke-opacity:1"
       id="path230-5-01-5-7-41"
       cx="70.792618"
       cy="59.197433"
       rx="2.8044915"
       ry="2.9752567" />
    <ellipse
       style="fill:#000000;fill-opacity:1;stroke:#000000;stroke-width:0.195973;stroke-dasharray:none;stroke-dashoffset:0;stroke-opacity:1"
       id="path230-5-01-5-7-9"
       cx="75.059258"
       cy="68.250267"
       rx="2.8044915"
       ry="2.9752567" />
    <ellipse
       style="fill:#000000;fill-opacity:1;stroke:#000000;stroke-width:0.195973;stroke-dasharray:none;stroke-dashoffset:0;stroke-opacity:1"
       id="path230-5-01-5-7-7"
       cx="72.091164"
       cy="86.946342"
       rx="2.8044915"
       ry="2.9752567" />
    <ellipse
       style="fill:#000000;fill-opacity:1;stroke:#000000;stroke-width:0.195973;stroke-dasharray:none;stroke-dashoffset:0;stroke-opacity:1"
       id="path230-5-01-5-7-90"
       cx="84.334518"
       cy="74.941498"
       rx="2.8044915"
       ry="2.9752567" />
    <ellipse
       style="fill:#000000;fill-opacity:1;stroke:#000000;stroke-width:0.195973;stroke-dasharray:none;stroke-dashoffset:0;stroke-opacity:1"
       id="path230-5-01-5-7-5"
       cx="90.641701"
       cy="64.314255"
       rx="2.8044915"
       ry="2.9752567" />
    <ellipse
       style="fill:#000000;fill-opacity:1;stroke:#000000;stroke-width:0.195973;stroke-dasharray:none;stroke-dashoffset:0;stroke-opacity:1"
       id="path230-5-01-5-7-44"
       cx="90.456192"
       cy="36.368538"
       rx="2.8044915"
       ry="2.9752567" />
    <ellipse
       style="fill:#000000;fill-opacity:1;stroke:#000000;stroke-width:0.195973;stroke-dasharray:none;stroke-dashoffset:0;stroke-opacity:1"
       id="path230-5-01-5-7-76"
       cx="84.14901"
       cy="25.24929"
       rx="2.8044915"
       ry="2.9752567" />
    <ellipse
       style="fill:#000000;fill-opacity:1;stroke:#000000;stroke-width:0.195973;stroke-dasharray:none;stroke-dashoffset:0;stroke-opacity:1"
       id="path230-5-01-5-7-2"
       cx="72.276665"
       cy="13.933244"
       rx="2.8044915"
       ry="2.9752567" />
    <ellipse
       style="fill:#000000;fill-opacity:1;stroke:#000000;stroke-width:0.195973;stroke-dasharray:none;stroke-dashoffset:0;stroke-opacity:1"
       id="path230-5-01-5-7-52"
       cx="83.592499"
       cy="38.533344"
       rx="2.8044915"
       ry="2.9752567" />
    <ellipse
       style="fill:#000000;fill-opacity:1;stroke:#000000;stroke-width:0.195973;stroke-dasharray:none;stroke-dashoffset:0;stroke-opacity:1"
       id="path230-5-01-5-7-37"
       cx="88.230141"
       cy="50.735001"
       rx="2.8044915"
       ry="2.9752567" />
    <ellipse
       style="fill:#000000;fill-opacity:1;stroke:#000000;stroke-width:0.195973;stroke-dasharray:none;stroke-dashoffset:0;stroke-opacity:1"
       id="path230-5-01-5-7-416"
       cx="70.607117"
       cy="42.469364"
       rx="2.8044915"
       ry="2.9752567" />
    <ellipse
       style="fill:#000000;fill-opacity:1;stroke:#000000;stroke-width:0.195973;stroke-dasharray:none;stroke-dashoffset:0;stroke-opacity:1"
       id="path230-5-01-5-7-45"
       cx="75.244759"
       cy="33.219727"
       rx="2.8044915"
       ry="2.9752567" />
    <rect
       style="fill:#000000;stroke:#000000;stroke-width:0.522691"
       id="rect1"
       width="8.7743464"
       height="4.041193"
       x="45.104855"
       y="19.396715"
       ry="0.066465475" />
    <rect
       style="fill:#000000;stroke:#000000;stroke-width:0.630368"
       id="rect1-2"
       width="13.121936"
       height="3.9302874"
       x="43.434029"
       y="27.417763"
       ry="0.064641401" />
    <rect
       style="fill:#000000;stroke:#000000;stroke-width:0.494038"
       id="rect1-0"
       width="7.7818842"
       height="4.0707064"
       x="46.243179"
       y="36.105198"
       ry="0.066950873" />
    <rect
       style="fill:#000000;stroke:#000000;stroke-width:0.522691"
       id="rect1-1"
       width="8.7743464"
       height="4.041193"
       x="-55.441658"
       y="-80.894089"
       ry="0.066465475"
       transform="scale(-1)" />
    <rect
       style="fill:#000000;stroke:#000000;stroke-width:0.630368"
       id="rect1-2-9"
       width="13.121936"
       height="3.9302874"
       x="-57.11248"
       y="-72.873032"
       ry="0.064641401"
       transform="scale(-1)" />
    <rect
       style="fill:#000000;stroke:#000000;stroke-width:0.494038"
       id="rect1-0-6"
       width="7.7818842"
       height="4.0707064"
       x="-54.303322"
       y="-64.1856"
       ry="0.066950873"
       transform="scale(-1)" />
    <path
       style="fill:#000000;stroke:#000000;stroke-width:1.44431;stroke-dasharray:none;stroke-opacity:1"
       d="m 64.368394,49.528425 14.654933,0.492002"
       id="path2" />
    <path
       style="fill:none;fill-opacity:1;stroke:#000000;stroke-width:1.44431;stroke-dasharray:none;stroke-dashoffset:0;stroke-opacity:1"
       d="M 28.910674,12.980972 C -6.7629404,40.150887 7.749651,70.969291 28.075301,86.109816"
       id="path253-2-2-3" />
    <path
       style="fill:none;fill-opacity:1;stroke:#000000;stroke-width:1.44431;stroke-dasharray:none;stroke-dashoffset:0;stroke-opacity:1"
       d="m 29.098358,13.336917 c -4.358384,10.957297 -9.358476,18.356015 8.063574,37.022135"
       id="path254-63-3-6" />
    <path
       style="fill:none;fill-opacity:1;stroke:#000000;stroke-width:1.44431;stroke-dasharray:none;stroke-dashoffset:0;stroke-opacity:1"
       d="m 16.554744,24.844562 c -0.414813,22.399588 9.372098,32.756853 13.7276,33.171659"
       id="path254-6-3-4-3" />
    <path
       style="fill:none;fill-opacity:1;stroke:#000000;stroke-width:1.44431;stroke-dasharray:none;stroke-dashoffset:0;stroke-opacity:1"
       d="M 10.475203,34.683275 C 9.8529918,46.505266 15.287927,67.245717 25.450745,67.038311"
       id="path254-6-9-6-9-5" />
    <path
       style="fill:none;fill-opacity:1;stroke:#000000;stroke-width:1.44431;stroke-dasharray:none;stroke-dashoffset:0;stroke-opacity:1"
       d="M 28.145196,86.225922 C 23.786819,75.268622 19.641514,68.596341 37.063559,49.93014"
       id="path254-9-8-9-1" />
    <path
       style="fill:none;fill-opacity:1;stroke:#000000;stroke-width:1.44431;stroke-dasharray:none;stroke-dashoffset:0;stroke-opacity:1"
       d="M 16.437404,74.738239 C 16.022605,52.338562 25.349363,41.697059 29.704857,41.282257"
       id="path254-6-7-7-2-3" />
    <path
       style="fill:none;fill-opacity:1;stroke:#000000;stroke-width:1.44431;stroke-dasharray:none;stroke-dashoffset:0;stroke-opacity:1"
       d="M 10.396747,64.458763 C 9.7745364,52.63671 15.102248,32.375951 25.265073,32.583357"
       id="path254-6-9-7-4-3-9" />
    <ellipse
       style="fill:#000000;fill-opacity:1;stroke:#000000;stroke-width:0.195973;stroke-dasharray:none;stroke-dashoffset:0;stroke-opacity:1"
       id="path230-5-01-5-7-78"
       cx="-21.540817"
       cy="-49.892345"
       transform="scale(-1)"
       rx="2.8044915"
       ry="2.9752567" />
    <ellipse
       style="fill:#000000;fill-opacity:1;stroke:#000000;stroke-width:0.195973;stroke-dasharray:none;stroke-dashoffset:0;stroke-opacity:1"
       id="path230-5-01-5-7-4-6"
       cx="-36.537788"
       cy="-50.1446"
       transform="scale(-1)"
       rx="2.8044915"
       ry="2.9752567" />
    <ellipse
       style="fill:#000000;fill-opacity:1;stroke:#000000;stroke-width:0.195973;stroke-dasharray:none;stroke-dashoffset:0;stroke-opacity:1"
       id="path230-5-01-5-7-41-7"
       cx="-29.674084"
       cy="-40.894962"
       transform="scale(-1)"
       rx="2.8044915"
       ry="2.9752567" />
    <ellipse
       style="fill:#000000;fill-opacity:1;stroke:#000000;stroke-width:0.195973;stroke-dasharray:none;stroke-dashoffset:0;stroke-opacity:1"
       id="path230-5-01-5-7-9-3"
       cx="-25.407446"
       cy="-31.842119"
       transform="scale(-1)"
       rx="2.8044915"
       ry="2.9752567" />
    <ellipse
       style="fill:#000000;fill-opacity:1;stroke:#000000;stroke-width:0.195973;stroke-dasharray:none;stroke-dashoffset:0;stroke-opacity:1"
       id="path230-5-01-5-7-7-0"
       cx="-28.375547"
       cy="-13.146044"
       transform="scale(-1)"
       rx="2.8044915"
       ry="2.9752567" />
    <ellipse
       style="fill:#000000;fill-opacity:1;stroke:#000000;stroke-width:0.195973;stroke-dasharray:none;stroke-dashoffset:0;stroke-opacity:1"
       id="path230-5-01-5-7-90-9"
       cx="-16.132183"
       cy="-25.150888"
       transform="scale(-1)"
       rx="2.8044915"
       ry="2.9752567" />
    <ellipse
       style="fill:#000000;fill-opacity:1;stroke:#000000;stroke-width:0.195973;stroke-dasharray:none;stroke-dashoffset:0;stroke-opacity:1"
       id="path230-5-01-5-7-5-1"
       cx="-9.4539938"
       cy="-35.778133"
       transform="scale(-1)"
       rx="2.8044915"
       ry="2.9752567" />
    <ellipse
       style="fill:#000000;fill-opacity:1;stroke:#000000;stroke-width:0.195973;stroke-dasharray:none;stroke-dashoffset:0;stroke-opacity:1"
       id="path230-5-01-5-7-44-9"
       cx="-10.010509"
       cy="-63.723858"
       transform="scale(-1)"
       rx="2.8044915"
       ry="2.9752567" />
    <ellipse
       style="fill:#000000;fill-opacity:1;stroke:#000000;stroke-width:0.195973;stroke-dasharray:none;stroke-dashoffset:0;stroke-opacity:1"
       id="path230-5-01-5-7-76-8"
       cx="-16.410442"
       cy="-75.335098"
       transform="scale(-1)"
       rx="2.8044915"
       ry="2.9752567" />
    <ellipse
       style="fill:#000000;fill-opacity:1;stroke:#000000;stroke-width:0.195973;stroke-dasharray:none;stroke-dashoffset:0;stroke-opacity:1"
       id="path230-5-01-5-7-2-5"
       cx="-28.190031"
       cy="-86.159149"
       transform="scale(-1)"
       rx="2.8044915"
       ry="2.9752567" />
    <ellipse
       style="fill:#000000;fill-opacity:1;stroke:#000000;stroke-width:0.195973;stroke-dasharray:none;stroke-dashoffset:0;stroke-opacity:1"
       id="path230-5-01-5-7-52-3"
       cx="-16.874201"
       cy="-61.559048"
       transform="scale(-1)"
       rx="2.8044915"
       ry="2.9752567" />
    <ellipse
       style="fill:#000000;fill-opacity:1;stroke:#000000;stroke-width:0.195973;stroke-dasharray:none;stroke-dashoffset:0;stroke-opacity:1"
       id="path230-5-01-5-7-37-8"
       cx="-12.23657"
       cy="-49.357399"
       transform="scale(-1)"
       rx="2.8044915"
       ry="2.9752567" />
    <ellipse
       style="fill:#000000;fill-opacity:1;stroke:#000000;stroke-width:0.195973;stroke-dasharray:none;stroke-dashoffset:0;stroke-opacity:1"
       id="path230-5-01-5-7-416-6"
       cx="-29.859591"
       cy="-57.623035"
       transform="scale(-1)"
       rx="2.8044915"
       ry="2.9752567" />
    <ellipse
       style="fill:#000000;fill-opacity:1;stroke:#000000;stroke-width:0.195973;stroke-dasharray:none;stroke-dashoffset:0;stroke-opacity:1"
       id="path230-5-01-5-7-45-3"
       cx="-25.221947"
       cy="-66.872658"
       transform="scale(-1)"
       rx="2.8044915"
       ry="2.9752567" />
    <path
       style="fill:#000000;stroke:#000000;stroke-width:1.44431;stroke-dasharray:none;stroke-opacity:1"
       d="M 36.09831,50.563968 21.44338,50.071967"
       id="path2-5" />
  </g>
</svg>
